<?xml version="1.0" encoding="UTF-8" standalone="no"?>
<svg width="46px" height="46px" viewBox="0 0 46 46" version="1.1" xmlns="http://www.w3.org/2000/svg" xmlns:xlink="http://www.w3.org/1999/xlink">
    <g stroke="none" strokeWidth="1" fill="none" fillRule="evenodd">
        <path d="M31.64,23.20571429 C31.64,22.57714286 31.5827143,21.97142857 31.4762857,21.38857143 L23,21.38857143 L23,24.845 L27.8422857,24.845 C27.635,25.97 26.9877143,26.9242857 25.9827143,27.5614286 L25.9827143,29.8192857 L28.9582857,29.8192857 C30.6540714,28.2914286 31.64,25.9464286 31.64,23.20571429 L31.64,23.20571429 Z" fill="#4285F4"></path>
        <path d="M23,32 C25.605,32 27.8062857,31.1925 29.4585714,29.8195 L26.4827143,27.5616429 C25.6427143,28.1216429 24.515,28.4592857 23,28.4592857 C20.4207143,28.4592857 18.2407143,26.7377143 17.4042857,24.415 L14.3257143,24.415 L14.3257143,26.7445714 C15.9692857,29.8925714 19.2407143,32 23,32 L23,32 Z" fill="#34A853"></path>
        <path d="M17.4042857,24.415 C17.2042857,23.775 17.0907143,23.0952857 17.0907143,22.3928571 C17.0907143,21.6904286 17.2042857,21.0107143 17.4042857,20.3707143 L17.4042857,18.0414286 L14.3257143,18.0414286 C13.6814286,19.3678571 13.3142857,20.8407143 13.3142857,22.3928571 C13.3142857,23.945 13.6814286,25.4178571 14.3257143,26.7442857 L17.4042857,24.415 L17.4042857,24.415 Z" fill="#FBBC05"></path>
        <path d="M23,17.0764286 C24.4207143,17.0764286 25.6935714,17.5978571 26.7235714,18.5814286 L29.3614286,15.9435714 C27.7992857,14.4892857 25.5977143,13.5714286 23,13.5714286 C19.2407143,13.5714286 15.9692857,15.6785714 14.3257143,18.8271429 L17.4042857,21.1564286 C18.2407143,18.8337143 20.4207143,17.0764286 23,17.0764286 L23,17.0764286 Z" fill="#EA4335"></path>
    </g>
</svg> 